<mxfile host="Electron" agent="Mozilla/5.0 (X11; Linux x86_64) AppleWebKit/537.36 (KHTML, like Gecko) draw.io/28.1.2 Chrome/138.0.7204.243 Electron/37.4.0 Safari/537.36" version="28.1.2">
  <diagram name="Page-1" id="kT-m-YI2jD5vehZx2se5">
    <mxGraphModel dx="1188" dy="729" grid="1" gridSize="10" guides="1" tooltips="1" connect="1" arrows="1" fold="1" page="1" pageScale="1" pageWidth="850" pageHeight="1100" math="0" shadow="0">
      <root>
        <mxCell id="0" />
        <mxCell id="1" parent="0" />
        <mxCell id="8s_kXZUZj0DTmQ1OPTsr-1" value="" style="shape=offPageConnector;whiteSpace=wrap;html=1;points=[[0,0,0,0,0],[0,0.25,0,0,0],[0,0.5,0,0,0],[0,0.75,0,0,0],[0,1,0,0,0],[0.25,0,0,0,0],[0.25,1,0,0,0],[0.5,0,0,0,0],[0.5,1,0,0,10],[0.75,0,0,0,0],[0.75,1,0,0,0],[1,0,0,0,0],[1,0.25,0,0,0],[1,0.5,0,0,0],[1,0.75,0,0,0],[1,1,0,0,0]];" vertex="1" parent="1">
          <mxGeometry x="290" y="190" width="100" height="60" as="geometry" />
        </mxCell>
        <mxCell id="8s_kXZUZj0DTmQ1OPTsr-6" value="" style="orthogonalLoop=1;jettySize=auto;html=1;rounded=0;entryX=0.5;entryY=1;entryDx=0;entryDy=0;" edge="1" parent="1" target="8s_kXZUZj0DTmQ1OPTsr-11">
          <mxGeometry width="80" relative="1" as="geometry">
            <mxPoint x="340" y="250" as="sourcePoint" />
            <mxPoint x="240" y="220" as="targetPoint" />
            <Array as="points">
              <mxPoint x="340" y="280" />
              <mxPoint x="240" y="280" />
            </Array>
          </mxGeometry>
        </mxCell>
        <mxCell id="8s_kXZUZj0DTmQ1OPTsr-12" style="edgeStyle=none;rounded=0;orthogonalLoop=1;jettySize=auto;html=1;exitX=0.5;exitY=0;exitDx=0;exitDy=0;entryX=0.3;entryY=0;entryDx=0;entryDy=0;entryPerimeter=0;" edge="1" parent="1" source="8s_kXZUZj0DTmQ1OPTsr-11" target="8s_kXZUZj0DTmQ1OPTsr-1">
          <mxGeometry relative="1" as="geometry">
            <mxPoint x="320" y="120" as="targetPoint" />
            <mxPoint x="240" y="130" as="sourcePoint" />
            <Array as="points">
              <mxPoint x="240" y="90" />
              <mxPoint x="560" y="90" />
              <mxPoint x="320" y="90" />
            </Array>
          </mxGeometry>
        </mxCell>
        <mxCell id="8s_kXZUZj0DTmQ1OPTsr-11" value="" style="rounded=0;whiteSpace=wrap;html=1;" vertex="1" parent="1">
          <mxGeometry x="210" y="140" width="60" height="20" as="geometry" />
        </mxCell>
        <mxCell id="8s_kXZUZj0DTmQ1OPTsr-82" value="" style="group" vertex="1" connectable="0" parent="1">
          <mxGeometry x="480" y="240" width="150" height="150" as="geometry" />
        </mxCell>
        <mxCell id="8s_kXZUZj0DTmQ1OPTsr-67" value="PC" style="swimlane;startSize=40;direction=west;movable=1;resizable=1;rotatable=1;deletable=1;editable=1;locked=0;connectable=1;fontSize=8;container=0;" vertex="1" parent="8s_kXZUZj0DTmQ1OPTsr-82">
          <mxGeometry y="14.285714285714286" width="21.42857142857143" height="135.7142857142857" as="geometry">
            <mxRectangle y="15.238095238095237" width="40" height="190" as="alternateBounds" />
          </mxGeometry>
        </mxCell>
        <mxCell id="8s_kXZUZj0DTmQ1OPTsr-77" value="MAR" style="swimlane;startSize=40;direction=west;movable=1;resizable=1;rotatable=1;deletable=1;editable=1;locked=0;connectable=1;fontSize=8;container=0;" vertex="1" parent="8s_kXZUZj0DTmQ1OPTsr-82">
          <mxGeometry x="21.428571428571445" y="14.285714285714286" width="21.42857142857143" height="135.7142857142857" as="geometry">
            <mxRectangle x="30" width="70" height="40" as="alternateBounds" />
          </mxGeometry>
        </mxCell>
        <mxCell id="8s_kXZUZj0DTmQ1OPTsr-76" value="MDR" style="swimlane;startSize=40;direction=west;movable=1;resizable=1;rotatable=1;deletable=1;editable=1;locked=0;connectable=1;fontSize=8;container=0;" vertex="1" parent="8s_kXZUZj0DTmQ1OPTsr-82">
          <mxGeometry x="42.85714285714289" y="14.285714285714286" width="21.42857142857143" height="135.7142857142857" as="geometry" />
        </mxCell>
        <mxCell id="8s_kXZUZj0DTmQ1OPTsr-75" value="ACC" style="swimlane;startSize=40;direction=west;movable=1;resizable=1;rotatable=1;deletable=1;editable=1;locked=0;connectable=1;fontSize=8;container=0;" vertex="1" parent="8s_kXZUZj0DTmQ1OPTsr-82">
          <mxGeometry x="64.28571428571433" y="14.285714285714286" width="21.42857142857143" height="135.7142857142857" as="geometry" />
        </mxCell>
        <mxCell id="8s_kXZUZj0DTmQ1OPTsr-74" value="SP" style="swimlane;startSize=40;direction=west;movable=1;resizable=1;rotatable=1;deletable=1;editable=1;locked=0;connectable=1;fontSize=8;container=0;" vertex="1" parent="8s_kXZUZj0DTmQ1OPTsr-82">
          <mxGeometry x="85.71428571428578" y="14.285714285714286" width="21.42857142857143" height="135.7142857142857" as="geometry" />
        </mxCell>
        <mxCell id="8s_kXZUZj0DTmQ1OPTsr-73" value="TMP" style="swimlane;startSize=40;direction=west;movable=1;resizable=1;rotatable=1;deletable=1;editable=1;locked=0;connectable=1;fontSize=8;container=0;" vertex="1" parent="8s_kXZUZj0DTmQ1OPTsr-82">
          <mxGeometry x="107.14285714285711" y="14.285714285714286" width="21.42857142857143" height="135.7142857142857" as="geometry" />
        </mxCell>
        <mxCell id="8s_kXZUZj0DTmQ1OPTsr-72" value="STS" style="swimlane;startSize=40;direction=west;movable=1;resizable=1;rotatable=1;deletable=1;editable=1;locked=0;connectable=1;fontSize=8;container=0;" vertex="1" parent="8s_kXZUZj0DTmQ1OPTsr-82">
          <mxGeometry x="128.57142857142856" y="14.285714285714286" width="21.42857142857143" height="135.7142857142857" as="geometry" />
        </mxCell>
        <mxCell id="8s_kXZUZj0DTmQ1OPTsr-80" value="Registers" style="rounded=0;whiteSpace=wrap;html=1;movable=1;resizable=1;rotatable=1;deletable=1;editable=1;locked=0;connectable=1;container=0;" vertex="1" parent="8s_kXZUZj0DTmQ1OPTsr-82">
          <mxGeometry width="150" height="14.287499999999994" as="geometry" />
        </mxCell>
        <mxCell id="8s_kXZUZj0DTmQ1OPTsr-86" value="" style="endArrow=classic;html=1;rounded=0;exitX=0.136;exitY=-0.017;exitDx=0;exitDy=0;exitPerimeter=0;" edge="1" parent="1">
          <mxGeometry width="50" height="50" relative="1" as="geometry">
            <mxPoint x="500.4" y="239.99711250000007" as="sourcePoint" />
            <mxPoint x="360" y="190" as="targetPoint" />
            <Array as="points">
              <mxPoint x="500" y="160.24" />
              <mxPoint x="360" y="160" />
            </Array>
          </mxGeometry>
        </mxCell>
      </root>
    </mxGraphModel>
  </diagram>
</mxfile>
